<svg version="1.0" xmlns="http://www.w3.org/2000/svg" width="96px" height="96px" viewBox="0 0 960 960" preserveAspectRatio="xMidYMid meet">
<g id="layer101" fill="#000000" stroke="none">
 <path d="M430 860 c-6 -11 -9 -24 -7 -28 51 -99 225 -386 239 -393 12 -6 24 -6 36 0 14 7 188 294 239 393 2 4 -1 17 -7 28 -10 19 -20 20 -250 20 -230 0 -240 -1 -250 -20z m290 -60 l0 -40 -40 0 -40 0 0 40 0 40 40 0 40 0 0 -40z m0 -160 l0 -80 -40 0 -40 0 0 80 0 80 40 0 40 0 0 -80z"/>
 <path d="M260 778 c-77 -30 -169 -123 -198 -201 -30 -79 -30 -195 0 -274 29 -80 121 -172 201 -201 78 -30 195 -30 271 -1 97 36 187 134 217 237 14 49 9 58 -22 41 -13 -6 -35 -12 -50 -11 -61 2 -80 23 -199 231 -129 225 -120 217 -220 179z m180 -435 l0 -103 -40 0 -40 0 0 98 0 98 -50 49 -50 49 22 23 22 24 68 -68 68 -67 0 -103z"/>
 </g>
</svg>